<svg id="Capa_1" enable-background="new 0 0 512 512" height="512" viewBox="0 0 512 512" width="512" xmlns="http://www.w3.org/2000/svg"><g><g><g><path d="m144.259 258.636-27.942 10.17c-3.018 1.099-4.575 4.436-3.476 7.454l45.064 123.813c1.099 3.018 4.436 4.575 7.454 3.476l27.942-10.17c3.018-1.099 4.575-4.436 3.476-7.454l-45.064-123.813c-1.099-3.019-4.436-4.575-7.454-3.476z" fill="#61aab8"/><path d="m478.918 360.253-2.17-86.295c-.102-4.039-3.405-7.26-7.445-7.26h-42.747v-25.59h46.946c15.711 0 28.326 12.303 28.721 28.008l2.276 90.493c.069 2.761-2.113 5.056-4.874 5.125l-15.582.392c-2.761.07-5.056-2.112-5.125-4.873z" fill="#91dafa"/><path d="m444.549 219.244h-217.381c-2.762 0-5.001 2.239-5.001 5.001v12.163c0 1.93 1.111 3.688 2.854 4.517l40.205 19.109c3.367 1.6 5.73 4.757 6.317 8.439l29.149 182.997c.803 5.042 5.151 8.752 10.256 8.752h93.386c5.105 0 9.454-3.71 10.256-8.752l35.884-225.281c.582-3.645-2.234-6.945-5.925-6.945z" fill="#91dafa"/><path d="m444.549 219.244h-20.515c3.691 0 6.507 3.301 5.927 6.946l-35.885 225.28c-.803 5.042-5.151 8.752-10.256 8.752h20.515c5.105 0 9.454-3.71 10.256-8.752l35.884-225.281c.581-3.645-2.235-6.945-5.926-6.945z" fill="#75cff9"/><path d="m311.998 294.288h-281.66c-3.212 0-5.816 2.604-5.816 5.816v84.521c0 10.253 4.441 20.003 12.176 26.732l49.016 42.646c4.609 4.01 10.513 6.219 16.622 6.219h137.664c6.109 0 12.013-2.209 16.622-6.219l49.016-42.646c7.735-6.73 12.176-16.48 12.176-26.732v-84.521c0-3.212-2.604-5.816-5.816-5.816z" fill="#8a94db"/><path d="m305.638 389.555-49.016 42.646c-4.609 4.01-10.513 6.219-16.622 6.219h-137.664c-6.109 0-12.013-2.208-16.622-6.219l-49.016-42.646c-7.735-6.73-12.176-16.48-12.176-26.732v21.802c0 10.252 4.441 20.003 12.176 26.732l49.016 42.646c4.609 4.01 10.513 6.219 16.622 6.219h137.664c6.109 0 12.013-2.209 16.622-6.219l49.016-42.646c7.735-6.73 12.176-16.48 12.176-26.732v-21.802c0 10.252-4.441 20.002-12.176 26.732z" fill="#5766cc"/><path d="m311.998 294.288h-25.315c3.212 0 5.816 2.604 5.816 5.816v84.521c0 10.253-4.441 20.003-12.176 26.733l-49.016 42.646c-4.609 4.01-10.513 6.219-16.622 6.219h25.315c6.109 0 12.013-2.209 16.622-6.219l49.016-42.646c7.735-6.73 12.176-16.48 12.176-26.733v-84.521c0-3.212-2.604-5.816-5.816-5.816z" fill="#5766cc"/><g><path d="m329.256 337.216c-26.166-11.65-65.349 19.269-78.576 48.975-11.65 26.166.118 56.823 26.284 68.473 26.167 11.65 56.823-.118 68.473-26.284 13.227-29.706 9.985-79.514-16.181-91.164z" fill="#ffeee5"/><path d="m329.256 337.216c-3.031-1.35-6.238-2.121-9.558-2.396 16.582 16.564 16.302 57.887 4.608 84.152-10.3 23.134-33.993 35.651-55.835 30.904 2.631 1.824 5.461 3.439 8.493 4.789 26.167 11.65 56.823-.118 68.473-26.284 13.227-29.707 9.986-79.514-16.181-91.165z" fill="#ffdecf"/></g><g><path d="m237.094 331.659c-28.643 0-51.862 44.183-51.862 76.701 0 28.643 23.22 51.862 51.862 51.862 28.643 0 51.862-23.22 51.862-51.862 0-32.518-23.219-76.701-51.862-76.701z" fill="#ffeee5"/><path d="m237.094 331.659c-3.318 0-6.562.6-9.707 1.698 21.886 8.388 38.438 46.251 38.438 75.002 0 25.324-16.553 46.395-38.438 50.942 3.146.596 6.387.92 9.707.92 28.643 0 51.862-23.219 51.862-51.862 0-32.517-23.219-76.7-51.862-76.7z" fill="#ffdecf"/></g></g></g><g><path d="m509.717 268.946c-.493-19.807-16.402-35.323-36.218-35.323h-16.607l.995-6.243c1.303-8.203-5.039-15.627-13.337-15.627h-143.299c-4.143 0-7.5 3.358-7.5 7.5s3.357 7.5 7.5 7.5h141.545l-35.614 223.551c-.223 1.405-1.423 2.425-2.853 2.425h-68.035c6.802-5.714 12.278-12.936 15.997-21.292 4.365-9.814 7.121-21.552 7.971-33.944.283-4.133-2.837-7.712-6.97-7.996-4.136-.29-7.712 2.836-7.995 6.97-.721 10.509-3.103 20.763-6.71 28.872-4.819 10.825-13.566 19.125-24.63 23.37-10.713 4.111-22.356 3.93-32.925-.466 9.578-10.545 15.423-24.54 15.423-39.874 0-16.343-5.224-34.987-14.088-50.711 15.892-13.222 32.686-18.541 43.844-13.575 8.592 3.822 13.215 13.107 15.581 20.223 1.309 3.936 5.556 6.055 9.483 4.751 3.931-1.307 6.058-5.553 4.751-9.483-4.76-14.315-12.962-24.411-23.718-29.196-2.288-1.018-4.628-1.758-7-2.273v-27.994c0-7.339-5.971-13.31-13.309-13.31h-29.949l-3.102-19.488c-.965-6.123-4.888-11.373-10.5-14.046l-38.778-18.42v-8.095h36.58c4.143 0 7.5-3.358 7.5-7.5s-3.357-7.5-7.5-7.5h-39.08c-6.893 0-12.5 5.607-12.5 12.5v12.17c0 4.794 2.796 9.225 7.133 11.294l40.202 19.096c1.137.542 1.932 1.602 2.128 2.848l2.729 17.141h-98.188l-9.915-27.248c-2.513-6.895-10.167-10.463-17.062-7.95l-6.923 2.52-8.647-23.757 4.527-1.648c6.283-2.287 10.555-8.316 10.63-15.002l1.22-109.634c.157-14.223-3.821-28.082-11.506-40.08l-4.786-7.473c-6.71-10.478-19.424-14.875-30.91-10.692l-78.268 28.488c-11.49 4.182-18.401 15.721-16.806 28.06l1.138 8.8c1.826 14.132 7.687 27.306 16.95 38.098l71.406 83.201c3.117 3.632 7.665 5.623 12.304 5.623 1.841 0 3.696-.314 5.482-.963l4.525-1.647 8.647 23.758-6.902 2.512c-3.349 1.208-6.022 3.65-7.531 6.876-1.51 3.228-1.669 6.849-.45 10.192l2.898 7.966h-78.35c-7.345 0-13.32 5.971-13.32 13.31v25.889c0 4.142 3.357 7.5 7.5 7.5s7.5-3.358 7.5-7.5v-24.198c9.21 0 262.976-.001 278.286-.001v25.934c-12.825 1.896-25.687 8.903-36.298 17.406-10.809-13.6-23.661-20.972-36.917-20.972-15.861 0-31.147 10.547-43.043 29.699-10.219 16.451-16.319 36.826-16.319 54.501 0 17.628 7.732 33.478 19.974 44.359h-95.363c-4.304 0-8.462-1.555-11.707-4.378l-49.012-42.64c-6.102-5.306-9.601-12.989-9.601-21.08v-23.63c0-4.142-3.357-7.5-7.5-7.5s-7.5 3.358-7.5 7.5v23.63c0 12.434 5.38 24.243 14.758 32.398l49.009 42.64c5.976 5.198 13.63 8.061 21.553 8.061h137.658c2.798 0 5.571-.362 8.249-1.064 7.293-1.393 14.114-4.121 20.202-7.925 1.774 1.02 3.596 1.955 5.458 2.78 7.726 3.44 15.92 5.165 24.131 5.165 2.024 0 4.048-.117 6.067-.327 2.162.896 4.481 1.37 6.842 1.37h93.379c8.85 0 16.281-6.34 17.666-15.07l28.431-178.48h18.823l2.17 86.272c.174 6.787 5.744 12.191 12.49 12.191.106 0 15.87-.404 15.87-.404 3.345-.072 6.458-1.445 8.766-3.864 2.31-2.421 3.535-5.598 3.45-8.942zm-444.521-140.66c-5.415-10.149-9.932-21.616-13.06-33.16l-2.274-8.388c-1.047-3.864-1.192-6.527-1.106-7.996l25.086-9.131c1.01 1.07 2.612 3.203 4.293 6.836l3.649 7.887c5.024 10.858 8.935 22.545 11.31 33.798l21.225 100.57-.323.118c-.016.006-.032.009-.048.015s-.03.013-.046.019l-.322.117zm35.237-68.352c4.843-1.764 10.25.162 13.148 4.686l4.786 7.473c6.102 9.529 9.262 20.533 9.137 31.823l-1.106 99.386-18.628-88.268c-2.603-12.339-6.883-25.133-12.373-36.999l-3.649-7.887c-1.006-2.174-2.079-4.133-3.201-5.889zm-70.735 79.582c-7.352-8.568-12.006-19.029-13.456-30.252l-1.138-8.801c-.688-5.327 2.215-10.278 7.06-12.042l11.886-4.326c.27 2.066.706 4.256 1.333 6.568l2.274 8.388c3.42 12.617 8.366 25.168 14.304 36.297l42.465 79.589zm90.771 135.778 12.279-4.469c.037-.013.074-.022.111-.035.032-.012.062-.027.094-.04l12.291-4.474 7.469 20.525h-28.058zm72.264 133.076c0-14.772 5.388-32.623 14.061-46.587 8.926-14.371 19.97-22.613 30.3-22.613 10.65 0 21.008 8.471 29.035 20.574.198.366.424.72.687 1.056 8.81 13.745 14.64 31.844 14.64 47.57 0 24.429-19.848 44.307-44.266 44.359h-.192c-24.416-.052-44.265-19.93-44.265-44.359zm293.62-50.791-2.106-83.792c-.202-8.173-6.768-14.575-14.947-14.575h-16.484l1.687-10.59h18.996c11.612 0 20.934 9.091 21.222 20.699l2.217 87.986z"/><path d="m384.887 274.355h8.002c4.143 0 7.5-3.358 7.5-7.5s-3.357-7.5-7.5-7.5h-8.002c-4.143 0-7.5 3.358-7.5 7.5s3.357 7.5 7.5 7.5z"/><path d="m384.887 311.159h8.002c4.143 0 7.5-3.358 7.5-7.5s-3.357-7.5-7.5-7.5h-8.002c-4.143 0-7.5 3.358-7.5 7.5s3.357 7.5 7.5 7.5z"/><path d="m384.887 347.962h8.002c4.143 0 7.5-3.358 7.5-7.5s-3.357-7.5-7.5-7.5h-8.002c-4.143 0-7.5 3.358-7.5 7.5s3.357 7.5 7.5 7.5z"/><path d="m384.887 384.766h8.002c4.143 0 7.5-3.358 7.5-7.5s-3.357-7.5-7.5-7.5h-8.002c-4.143 0-7.5 3.358-7.5 7.5s3.357 7.5 7.5 7.5z"/></g></g></svg>