<?xml version="1.0" standalone="no"?>
<!DOCTYPE svg PUBLIC "-//W3C//DTD SVG 20010904//EN"
 "http://www.w3.org/TR/2001/REC-SVG-20010904/DTD/svg10.dtd">
<svg version="1.0" xmlns="http://www.w3.org/2000/svg"
 width="700.000000pt" height="700.000000pt" viewBox="0 0 700.000000 700.000000"
 preserveAspectRatio="xMidYMid meet">
<metadata>
Created by potrace 1.11, written by Peter Selinger 2001-2013
</metadata>
<g transform="translate(0.000000,700.000000) scale(0.100000,-0.100000)"
fill="#000000" stroke="none">
<path d="M1367 6393 c-36 -6 -1129 -404 -1182 -430 -56 -29 -121 -98 -153
-163 -25 -51 -27 -64 -26 -170 2 -197 55 -386 151 -543 72 -115 1084 -1292
1134 -1318 61 -30 115 -34 182 -11 40 13 60 16 63 8 2 -6 26 -73 54 -149 27
-76 50 -144 50 -152 0 -7 -28 -23 -62 -35 -78 -28 -122 -72 -137 -137 -10 -42
-9 -57 9 -117 12 -37 24 -75 27 -82 4 -12 -81 -14 -548 -14 -543 0 -553 0
-597 -21 -26 -13 -54 -38 -70 -62 l-27 -41 0 -229 0 -229 33 -29 c18 -16 41
-29 52 -29 19 0 20 -7 20 -134 l0 -134 -29 -7 c-16 -3 -39 -17 -52 -31 -23
-25 -24 -30 -27 -233 -2 -154 1 -225 12 -278 16 -78 60 -174 109 -240 36 -48
720 -648 804 -705 112 -77 41 -72 1150 -76 954 -2 996 -2 1089 17 60 12 130
36 185 62 l88 42 69 -31 c171 -76 260 -83 1136 -88 768 -5 744 -7 825 74 25
26 51 63 58 82 7 19 98 575 203 1235 105 660 193 1212 196 1228 l6 27 123 0
123 0 6 -62 c3 -35 11 -301 17 -593 6 -291 15 -547 20 -568 12 -47 68 -103
116 -116 23 -7 89 -8 168 -5 160 7 202 23 242 91 l26 45 -17 661 c-13 504 -20
677 -32 726 -37 160 -159 294 -320 352 -48 18 -89 23 -220 26 l-162 5 5 78 c5
68 3 82 -17 118 -27 48 -63 76 -116 91 -27 8 -346 11 -1027 11 -1079 0 -1036
2 -1068 -56 -24 -45 -17 -93 19 -125 l32 -29 986 0 986 0 -6 -27 c-3 -16 -78
-482 -166 -1038 -89 -555 -196 -1232 -240 -1504 -43 -271 -83 -498 -89 -504
-8 -8 -161 -13 -479 -15 l-467 -4 57 59 c141 149 227 354 258 619 14 115 7
144 -42 174 -44 28 -94 21 -130 -19 -21 -23 -28 -44 -33 -98 -36 -363 -181
-585 -444 -680 -112 -41 -323 -41 -398 0 l-23 13 42 54 c55 74 122 218 143
310 24 106 22 277 -5 410 -26 133 -50 207 -112 347 -27 62 -47 117 -44 122 4
5 37 30 74 55 195 129 381 174 507 122 75 -32 158 -132 204 -249 13 -32 35
-66 49 -77 35 -28 93 -26 130 5 42 35 46 73 17 152 -69 182 -191 315 -340 369
l-60 22 -5 218 c-5 230 -10 254 -56 295 -52 46 -73 49 -307 49 l-225 0 -5 23
c-3 12 -13 72 -22 132 -36 245 -37 246 -412 424 l-283 134 0 54 0 53 268 0
c294 0 301 1 326 62 18 41 9 82 -26 115 l-29 28 -312 0 c-308 0 -312 0 -349
-23 -65 -40 -82 -81 -87 -205 -4 -129 9 -183 53 -226 20 -19 141 -83 317 -167
156 -74 289 -141 295 -147 7 -7 21 -67 31 -135 l19 -122 -670 2 -670 3 -73
200 c-49 134 -82 209 -101 228 -55 60 -127 71 -227 37 -32 -11 -60 -19 -61
-17 -13 12 -113 312 -107 317 4 4 24 13 43 19 51 16 105 64 130 117 22 45 23
50 32 842 11 859 9 905 -38 1055 -42 131 -147 321 -223 400 -81 86 -199 127
-314 110z m114 -220 c36 -14 52 -31 110 -121 77 -118 125 -238 141 -352 7 -52
8 -288 2 -765 l-9 -690 -132 625 c-164 774 -183 844 -314 1119 -33 69 -56 128
-51 133 11 11 173 68 194 68 10 0 36 -8 59 -17z m-443 -165 c66 -107 186 -424
226 -593 37 -159 295 -1399 292 -1402 -5 -5 -700 1303 -734 1382 -69 160 -156
452 -150 503 3 25 14 31 158 84 85 31 163 57 172 58 9 0 25 -15 36 -32z m-554
-250 c32 -148 115 -382 185 -524 38 -77 188 -363 335 -638 146 -274 266 -500
266 -503 0 -6 -855 991 -898 1046 -82 108 -135 253 -154 419 -13 122 -9 150
30 192 25 27 162 88 202 89 11 1 20 -22 34 -81z m6056 -2169 c55 -12 125 -59
163 -107 53 -69 55 -92 72 -732 8 -327 15 -603 15 -612 0 -15 -10 -18 -70 -18
l-70 0 -1 103 c-1 311 -28 1075 -38 1101 -21 54 -54 88 -105 112 -45 21 -65
24 -180 24 l-128 0 7 57 c11 89 1 83 154 83 75 0 156 -5 181 -11z m-3175
-1258 c250 -111 476 -541 476 -905 0 -58 -7 -125 -15 -158 -53 -199 -207 -361
-401 -425 -101 -33 -247 -37 -339 -9 -218 65 -377 228 -431 441 -44 174 5 446
123 681 162 323 384 465 587 375z"/>
<path d="M5224 3450 c-66 -27 -85 -120 -35 -171 29 -28 32 -29 128 -29 95 0
100 1 125 28 35 36 43 71 25 115 -21 50 -60 67 -149 66 -40 0 -83 -4 -94 -9z"/>
<path d="M5240 2950 c-80 -20 -107 -110 -51 -172 28 -32 33 -33 114 -36 102
-5 141 11 163 65 19 45 11 83 -25 117 -24 23 -39 28 -97 31 -38 2 -85 0 -104
-5z"/>
<path d="M5208 2434 c-70 -37 -64 -145 9 -183 29 -15 172 -14 203 2 14 7 34
28 44 48 24 44 16 80 -24 120 -27 28 -33 29 -117 29 -58 -1 -97 -6 -115 -16z"/>
<path d="M5224 1940 c-66 -27 -85 -120 -35 -171 28 -28 33 -29 124 -29 87 0
98 2 125 25 38 32 48 72 28 118 -20 50 -59 67 -148 66 -40 0 -83 -4 -94 -9z"/>
</g>
</svg>
